<svg width="8750" height="3125" viewBox="0 0 8750 3125" fill="none" xmlns="http://www.w3.org/2000/svg">
<path d="M625 2520C581.667 2520 538.333 2515 495 2505C451.667 2496.67 410.833 2481.67 372.5 2460C335.833 2438.33 303.333 2410.83 275 2377.5C246.667 2344.17 223.333 2307.5 205 2267.5C188.333 2227.5 176.667 2185.83 170 2142.5C163.333 2099.17 160 2055.83 160 2012.5V662.5H355V2012.5C355 2039.17 356.667 2066.67 360 2095C363.333 2121.67 369.167 2147.5 377.5 2172.5C387.5 2197.5 400 2221.67 415 2245C430 2266.67 448.333 2285.83 470 2302.5C493.333 2317.5 518.333 2328.33 545 2335C571.667 2341.67 598.333 2345 625 2345C651.667 2345 678.333 2341.67 705 2335C731.667 2328.33 755.833 2317.5 777.5 2302.5C800.833 2285.83 820 2266.67 835 2245C850 2221.67 861.667 2197.5 870 2172.5C880 2147.5 886.667 2121.67 890 2095C893.333 2066.67 895 2039.17 895 2012.5V662.5H1090V2012.5C1090 2055.83 1086.67 2099.17 1080 2142.5C1073.33 2185.83 1060.83 2227.5 1042.5 2267.5C1025.83 2307.5 1003.33 2344.17 975 2377.5C946.667 2410.83 913.333 2438.33 875 2460C838.333 2481.67 798.333 2496.67 755 2505C711.667 2515 668.333 2520 625 2520Z" fill="#E00122"/>
<path d="M1867.5 2520C1824.17 2520 1780 2515.83 1735 2507.5C1691.67 2499.17 1650.83 2484.17 1612.5 2462.5C1574.17 2440.83 1540 2413.33 1510 2380C1480 2346.67 1455.83 2310 1437.5 2270C1419.17 2230 1406.67 2188.33 1400 2145C1393.33 2100 1390 2055.83 1390 2012.5V1150C1390 1106.67 1393.33 1063.33 1400 1020C1406.67 975 1419.17 932.5 1437.5 892.5C1455.83 852.5 1480 815.833 1510 782.5C1540 749.167 1574.17 721.667 1612.5 700C1650.83 678.333 1691.67 663.333 1735 655C1780 646.667 1824.17 642.5 1867.5 642.5C1909.17 642.5 1950 645.833 1990 652.5C2031.67 659.167 2070.83 671.667 2107.5 690C2145.83 708.333 2180 732.5 2210 762.5C2241.67 790.833 2267.5 823.333 2287.5 860C2307.5 895 2321.67 933.333 2330 975C2340 1015 2345 1055.83 2345 1097.5V1112.5H2150V1102.5C2150 1064.17 2144.17 1026.67 2132.5 990C2120.83 953.333 2101.67 921.667 2075 895C2048.33 866.667 2016.67 846.667 1980 835C1943.33 823.333 1905.83 817.5 1867.5 817.5C1825.83 817.5 1785 825.833 1745 842.5C1706.67 859.167 1675 884.167 1650 917.5C1625 949.167 1607.5 985.833 1597.5 1027.5C1589.17 1067.5 1585 1108.33 1585 1150V2012.5C1585 2054.17 1589.17 2095.83 1597.5 2137.5C1607.5 2177.5 1625 2214.17 1650 2247.5C1675 2279.17 1706.67 2303.33 1745 2320C1785 2336.67 1825.83 2345 1867.5 2345C1905.83 2345 1943.33 2339.17 1980 2327.5C2016.67 2315.83 2048.33 2296.67 2075 2270C2101.67 2241.67 2120.83 2209.17 2132.5 2172.5C2144.17 2135.83 2150 2098.33 2150 2060V2050H2345V2065C2345 2106.67 2340 2148.33 2330 2190C2321.67 2230 2307.5 2268.33 2287.5 2305C2267.5 2340 2241.67 2372.5 2210 2402.5C2180 2430.83 2145.83 2454.17 2107.5 2472.5C2070.83 2490.83 2031.67 2503.33 1990 2510C1950 2516.67 1909.17 2520 1867.5 2520ZM3937.5 2500V2325H4295V837.5H3972.5V662.5H4490V2325H4812.5V2500H3937.5ZM5187.5 2500V2325H5545V837.5H5222.5V662.5H5740V2325H6062.5V2500H5187.5ZM6785 2520C6733.33 2520 6681.67 2513.33 6630 2500C6580 2485 6535.83 2460 6497.5 2425C6460.83 2390 6433.33 2347.5 6415 2297.5C6398.33 2245.83 6390 2194.17 6390 2142.5C6390 2100.83 6395 2059.17 6405 2017.5C6416.67 1975.83 6435.83 1939.17 6462.5 1907.5C6489.17 1874.17 6520.83 1846.67 6557.5 1825C6594.17 1801.67 6632.5 1783.33 6672.5 1770C6712.5 1756.67 6753.33 1747.5 6795 1742.5C6836.67 1737.5 6879.17 1735 6922.5 1735H7145V1612.5C7145 1577.5 7139.17 1542.5 7127.5 1507.5C7115.83 1472.5 7096.67 1443.33 7070 1420C7043.33 1396.67 7012.5 1380 6977.5 1370C6942.5 1360 6907.5 1355 6872.5 1355C6840.83 1355 6809.17 1358.33 6777.5 1365C6745.83 1370 6715.83 1381.67 6687.5 1400C6660.83 1416.67 6639.17 1439.17 6622.5 1467.5C6607.5 1495.83 6600 1525.83 6600 1557.5V1562.5H6405V1555C6405 1516.67 6410.83 1480 6422.5 1445C6434.17 1408.33 6450.83 1375 6472.5 1345C6494.17 1313.33 6520 1286.67 6550 1265C6581.67 1243.33 6615 1226.67 6650 1215C6686.67 1201.67 6723.33 1192.5 6760 1187.5C6796.67 1182.5 6834.17 1180 6872.5 1180C6912.5 1180 6952.5 1183.33 6992.5 1190C7032.5 1195 7070.83 1205.83 7107.5 1222.5C7144.17 1239.17 7177.5 1260.83 7207.5 1287.5C7239.17 1314.17 7265 1345 7285 1380C7305 1415 7319.17 1452.5 7327.5 1492.5C7335.83 1532.5 7340 1572.5 7340 1612.5V2500H7145V2285C7131.67 2320 7112.5 2353.33 7087.5 2385C7064.17 2415 7036.67 2440.83 7005 2462.5C6973.33 2484.17 6938.33 2499.17 6900 2507.5C6861.67 2515.83 6823.33 2520 6785 2520ZM6865 2345C6903.33 2345 6940.83 2339.17 6977.5 2327.5C7015.83 2314.17 7047.5 2293.33 7072.5 2265C7099.17 2236.67 7117.5 2203.33 7127.5 2165C7139.17 2126.67 7145 2088.33 7145 2050V1910H6922.5C6897.5 1910 6872.5 1911.67 6847.5 1915C6822.5 1916.67 6797.5 1920.83 6772.5 1927.5C6749.17 1932.5 6725.83 1940 6702.5 1950C6679.17 1960 6658.33 1973.33 6640 1990C6621.67 2006.67 6607.5 2027.5 6597.5 2052.5C6589.17 2075.83 6585 2100 6585 2125C6585 2158.33 6592.5 2190.83 6607.5 2222.5C6622.5 2252.5 6643.33 2277.5 6670 2297.5C6698.33 2315.83 6729.17 2328.33 6762.5 2335C6795.83 2341.67 6830 2345 6865 2345ZM8212.5 2520C8172.5 2520 8133.33 2514.17 8095 2502.5C8056.67 2492.5 8021.67 2475.83 7990 2452.5C7958.33 2429.17 7930.83 2400.83 7907.5 2367.5C7885.83 2334.17 7868.33 2298.33 7855 2260V2500H7660V662.5H7855V1440C7868.33 1401.67 7885.83 1365.83 7907.5 1332.5C7930.83 1299.17 7958.33 1270.83 7990 1247.5C8021.67 1224.17 8056.67 1207.5 8095 1197.5C8133.33 1185.83 8172.5 1180 8212.5 1180C8254.17 1180 8295 1185.83 8335 1197.5C8375 1209.17 8410.83 1228.33 8442.5 1255C8475.83 1280 8503.33 1310 8525 1345C8546.67 1380 8564.17 1417.5 8577.5 1457.5C8590.83 1495.83 8599.17 1535.83 8602.5 1577.5C8607.5 1617.5 8610 1658.33 8610 1700V2000C8610 2041.67 8607.5 2083.33 8602.5 2125C8599.17 2165 8590.83 2205 8577.5 2245C8564.17 2283.33 8546.67 2320 8525 2355C8503.33 2390 8475.83 2420.83 8442.5 2447.5C8410.83 2472.5 8375 2490.83 8335 2502.5C8295 2514.17 8254.17 2520 8212.5 2520ZM8135 2345C8163.33 2345 8190.83 2341.67 8217.5 2335C8245.83 2328.33 8270.83 2316.67 8292.5 2300C8315.83 2283.33 8335.83 2263.33 8352.5 2240C8369.17 2216.67 8381.67 2191.67 8390 2165C8400 2138.33 8406.67 2111.67 8410 2085C8413.33 2056.67 8415 2028.33 8415 2000V1700C8415 1671.67 8413.33 1644.17 8410 1617.5C8406.67 1589.17 8400 1561.67 8390 1535C8381.67 1508.33 8369.17 1483.33 8352.5 1460C8335.83 1436.67 8315.83 1416.67 8292.5 1400C8270.83 1383.33 8245.83 1371.67 8217.5 1365C8190.83 1358.33 8163.33 1355 8135 1355C8106.67 1355 8078.33 1358.33 8050 1365C8023.33 1371.67 7998.33 1383.33 7975 1400C7953.33 1416.67 7934.17 1436.67 7917.5 1460C7900.83 1483.33 7887.5 1508.33 7877.5 1535C7869.17 1561.67 7863.33 1589.17 7860 1617.5C7856.67 1644.17 7855 1671.67 7855 1700V2000C7855 2028.33 7856.67 2056.67 7860 2085C7863.33 2111.67 7869.17 2138.33 7877.5 2165C7887.5 2191.67 7900.83 2216.67 7917.5 2240C7934.17 2263.33 7953.33 2283.33 7975 2300C7998.33 2316.67 8023.33 2328.33 8050 2335C8078.33 2341.67 8106.67 2345 8135 2345Z" fill="black"/>
<g clip-path="url(#clip0_1_15)">
<path d="M3175.59 2032.55C3176.99 2032.55 3178.19 2032.75 3179.39 2032.75L3175.59 2032.55Z" fill="black"/>
<path d="M3694.86 1154.25C3693.95 1140.45 3692.59 1126.65 3690.78 1112.95C3686.47 1081.15 3678.2 1050.15 3666.99 1019.75C3649.77 973.35 3625.41 929.95 3593.79 889.75C3568.41 857.45 3539.06 828.15 3505.98 801.95C3467.68 771.65 3425.19 746.65 3378.85 726.95C3341.69 711.15 3302.94 699.45 3262.6 691.45C3236.88 686.35 3210.82 683.25 3184.53 681.65C3170.03 680.75 3155.52 681.25 3141.02 681.05C3123.68 680.75 3106.58 681.85 3089.35 683.45C3059.32 686.25 3029.75 691.45 3000.63 698.85C2945.56 712.85 2894.46 734.25 2847.21 762.85C2805.74 788.05 2768.8 817.55 2736.28 851.45C2698.21 891.05 2667.84 934.85 2645.18 982.85C2628.86 1017.35 2617.08 1053.05 2609.72 1089.95C2604.18 1118.05 2600.78 1146.35 2601.01 1174.85C2601.01 1186.55 2602.26 1198.15 2602.26 1209.75C2602.26 1231.35 2605.55 1252.55 2609.74 1273.65C2619.71 1323.35 2637.39 1370.85 2663.56 1415.75C2665.83 1419.65 2668.55 1423.35 2670.7 1427.35C2674.33 1434.05 2677.61 1440.85 2681.24 1447.55C2697.67 1478.45 2714.67 1509.05 2730.75 1540.05C2758.28 1592.75 2782.76 1646.45 2804.29 1701.25C2825.02 1753.95 2842.7 1807.45 2853.24 1862.55C2856.98 1881.75 2859.7 1901.05 2860.6 1920.45C2860.94 1927.05 2860.83 1933.65 2861.39 1940.25C2862.3 1950.25 2863.66 1960.15 2864.79 1970.15C2865.92 1980.25 2866.38 1990.55 2868.53 2000.55C2871.7 2015.55 2877.82 2029.95 2886.89 2043.05C2896.97 2057.65 2910.12 2069.25 2928.36 2075.85C2939.35 2079.75 2950.68 2081.45 2962.35 2081.45H3324.81C3332.29 2081.45 3339.77 2081.25 3347.24 2080.55C3368.31 2078.65 3385.99 2070.55 3399.7 2056.35C3417.6 2037.75 3427.23 2015.95 3429.73 1991.75C3432.11 1969.25 3434.83 1946.75 3436.19 1924.15C3437.44 1903.25 3440.04 1882.55 3444.01 1862.05C3452.28 1819.25 3464.97 1777.45 3479.93 1736.15C3498.06 1686.05 3519.02 1636.85 3542.47 1588.55C3556.18 1560.35 3570.34 1532.25 3584.96 1504.45C3596.63 1482.25 3608.75 1460.25 3621.67 1438.55C3637.99 1411.15 3652.38 1383.05 3663.82 1353.75C3684.1 1301.75 3694.53 1248.25 3695.77 1193.35C3696.11 1180.25 3695.66 1167.25 3694.86 1154.25ZM3579.97 1406.95C3522.75 1503.95 3473.12 1603.95 3434.15 1707.85C3417.95 1751.35 3404.01 1795.35 3394.49 1840.45C3389.39 1864.75 3385.09 1889.15 3384.18 1913.85C3383.27 1939.35 3379.99 1964.65 3377.16 1990.05C3375.91 2000.85 3371.61 2010.75 3364.7 2019.75C3358.24 2028.15 3349.29 2032.45 3337.62 2032.45H3155.2C3154.86 2032.45 3154.41 2032.55 3154.07 2032.55H3148.74C3146.02 2032.55 3143.3 2032.55 3140.58 2032.65C3139.33 2032.85 3138.2 2032.95 3136.95 2032.95C3133.44 2032.95 3130.04 2032.85 3126.53 2032.55C3126.08 2032.55 3125.74 2032.55 3125.28 2032.45H3124.6C3124.6 2032.55 3121.2 2032.55 3121.2 2032.55H3115.87C3064.66 2032.55 3013.44 2032.35 2962.23 2032.55C2948.41 2032.55 2938.66 2027.45 2931.86 2017.35C2924.5 2006.45 2920.64 1994.65 2919.4 1982.05C2917.93 1966.45 2916.23 1950.85 2914.64 1935.25C2914.41 1932.65 2914.19 1930.05 2914.19 1927.45C2913.28 1879.75 2902.97 1833.35 2889.83 1787.35C2868.98 1714.45 2839.64 1644.05 2806.89 1574.65C2778.22 1513.85 2746.27 1454.25 2712.51 1395.55C2685.54 1348.75 2667.64 1299.55 2659.48 1247.55C2657.1 1232.35 2655.74 1217.25 2655.4 1201.95C2655.17 1191.15 2654.27 1180.25 2654.49 1169.45C2655.4 1130.25 2661.97 1091.85 2674.09 1054.25C2700.26 973.55 2747.63 904.15 2816.74 846.55C2883.7 790.85 2962.22 754.15 3052.53 737.65C3076.55 733.25 3100.91 730.85 3125.5 729.65C3145.78 728.65 3166.06 728.95 3186.23 730.35C3238.58 734.05 3289.22 744.25 3337.15 763.25C3479.46 819.55 3572.83 914.35 3620.41 1044.85C3631.85 1076.25 3638.65 1108.55 3641.37 1141.55C3642.39 1154.15 3643.52 1166.85 3643.52 1179.45C3643.29 1259.75 3622.22 1335.55 3580.07 1406.95H3579.96H3579.97Z" fill="black"/>
<path d="M2972.19 2270.45C2950.69 2263.15 2939.19 2249.35 2938.99 2228.05C2938.69 2206.25 2950.39 2192.05 2971.99 2184.35C2969.69 2183.45 2968.49 2183.05 2967.39 2182.55C2937.89 2171.25 2929.19 2134.25 2950.69 2111.15C2957.69 2103.55 2966.49 2098.95 2977.09 2098.25C2979.09 2098.25 2981.09 2098.05 2983.09 2098.05H3313.29C3328.39 2098.05 3340.69 2103.65 3349.49 2115.95C3365.19 2137.75 3357.59 2172.45 3327.89 2182.55C3326.59 2182.95 3325.29 2183.45 3322.89 2184.25C3345.99 2191.95 3358.49 2206.65 3357.09 2230.65C3355.89 2251.25 3343.49 2263.65 3323.49 2270.25C3326.09 2271.35 3327.69 2272.05 3329.19 2272.65C3346.39 2278.95 3360.99 2296.75 3356.59 2321.95C3353.09 2342.25 3335.19 2356.75 3314.19 2356.75H2982.19C2958.39 2356.75 2942.99 2340.15 2939.59 2321.75C2935.59 2300.45 2946.79 2280.25 2966.99 2272.35C2968.19 2271.85 2969.49 2271.35 2972.19 2270.35V2270.45Z" fill="black"/>
<path d="M3015.49 2373.35H3281.39C3274.89 2384.65 3266.09 2393.35 3256.99 2401.55C3230.89 2425.05 3200.29 2438.95 3165.19 2442.75C3097.79 2450.05 3040.49 2412.95 3015.49 2373.35Z" fill="black"/>
<path d="M3020.05 831.3C2955.53 827.96 2892.25 856.13 2844.29 900.22C2789.14 950.92 2756.12 1022.55 2740.73 1095.64C2731.07 1141.5 2728.54 1188.29 2728.94 1234.95C2728.99 1240.69 2737.68 1240.48 2737.63 1234.72C2736.96 1156.04 2745.9 1076.44 2779.92 1004.41C2809.28 942.26 2856.48 889.66 2918.21 860.86C2950.19 845.94 2985.23 838.41 3020.14 840.22C3025.72 840.51 3025.61 831.58 3020.05 831.29V831.3Z" fill="black" stroke="black" stroke-width="51" stroke-miterlimit="10"/>
<path d="M3131.15 1861.24C2981.75 1861.24 2886.61 1766.29 2886.61 1612.37V979.34H2982.38V1617.34C2982.38 1716.02 3039.2 1779.32 3130.51 1779.32C3221.82 1779.32 3277.36 1722.22 3277.36 1622.92V1574.51H3373.13V1627.26C3373.13 1771.24 3276.72 1861.23 3131.15 1861.23V1861.24Z" fill="black"/>
<path d="M3179.73 1117.87H3113.06V1691.01H3179.73V1117.87Z" fill="black"/>
<path d="M3148.85 979.34H3024.7C3024.65 999.15 3024.57 1018.97 3024.47 1038.78C3024.41 1050.18 3024.34 1061.59 3024.27 1072.99H3153.47C3245.32 1072.99 3304.23 1128.56 3304.23 1217.84C3304.23 1237.24 3301.43 1255.25 3296.04 1271.52H3376.27C3379.04 1254.72 3380.48 1237.01 3380.48 1218.47C3380.48 1072.37 3292.1 979.34 3148.85 979.34Z" fill="black"/>
</g>
<defs>
<clipPath id="clip0_1_15">
<rect width="1094.88" height="1762.67" fill="white" transform="translate(2601 681)"/>
</clipPath>
</defs>
</svg>
