<svg width="32" height="32" viewBox="0 0 32 32" fill="none" xmlns="http://www.w3.org/2000/svg">
<g clip-path="url(#clip0_1_2)">
<path d="M2.19631 5.14251C6.99028 8.97992 11.83 12.7634 16.71 16.4877C18.0758 17.5306 19.4471 18.5681 20.821 19.6029V18.4387C16.8605 20.9772 12.9001 23.5131 8.94228 26.0516C8.21633 26.5178 8.88851 27.6846 9.61984 27.2157C13.5803 24.6772 17.5408 22.1414 21.4985 19.6029C21.9556 19.3091 21.9019 18.7432 21.4985 18.4387C16.6831 14.8142 11.9106 11.1358 7.18118 7.40076C5.83414 6.33362 4.48709 5.26378 3.14543 4.18855C2.86311 3.96218 2.47325 3.91098 2.19631 4.18855C1.95971 4.42569 1.91131 4.91345 2.19631 5.14251Z" fill="#DF1F26"/>
<path d="M22.1008 15.5527C23.9614 17.2881 25.8811 18.9616 27.8519 20.5704L27.989 19.5113C24.0286 21.4732 20.3343 23.9497 17.0003 26.8547C16.7261 27.0945 16.7556 27.5634 17.0003 27.8087C17.2719 28.0808 17.6752 28.0485 17.9521 27.8087C21.2001 24.9791 24.811 22.5861 28.6693 20.6755C29.0323 20.4949 29.1291 19.8832 28.8064 19.6164C26.8356 18.0076 24.9185 16.3342 23.0553 14.5987C22.4234 14.0085 21.4689 14.9598 22.1035 15.5527H22.1008Z" fill="#DF1F26"/>
</g>
<defs>
<clipPath id="clip0_1_2">
<rect width="27" height="24" fill="white" transform="translate(2 4)"/>
</clipPath>
</defs>
</svg>
