<svg width="2500" height="2500" viewBox="0 0 2500 2500" fill="none" xmlns="http://www.w3.org/2000/svg">
<circle cx="1250" cy="1250" r="1250" fill="white"/>
<path d="M1285.86 1867.59C1287.7 1867.59 1289.28 1867.85 1290.86 1867.85L1285.86 1867.59Z" fill="black"/>
<path d="M1968.05 713.727C1966.85 695.598 1965.07 677.468 1962.69 659.47C1957.03 617.693 1946.16 576.967 1931.44 537.029C1908.81 476.071 1876.81 419.055 1835.27 366.243C1801.93 323.809 1763.37 285.316 1719.91 250.896C1669.59 211.09 1613.77 178.246 1552.89 152.366C1504.08 131.608 1453.17 116.238 1400.17 105.728C1366.38 99.0277 1332.15 94.9551 1297.61 92.8531C1278.56 91.6708 1259.5 92.3276 1240.45 92.0649C1217.67 91.6708 1195.2 93.1159 1172.57 95.2179C1133.12 98.8963 1094.27 105.728 1056.01 115.449C983.664 133.842 916.532 161.956 854.457 199.529C799.977 232.635 751.447 271.391 708.724 315.926C658.71 367.951 618.812 425.492 589.042 488.552C567.602 533.876 552.126 580.777 542.457 629.254C535.179 666.17 530.712 703.349 531.014 740.79C531.014 756.161 532.657 771.4 532.657 786.64C532.657 815.017 536.979 842.868 542.483 870.588C555.581 935.881 578.808 998.284 613.189 1057.27C616.171 1062.39 619.744 1067.25 622.569 1072.51C627.338 1081.31 631.647 1090.25 636.416 1099.05C658.001 1139.64 680.334 1179.84 701.459 1220.57C737.626 1289.8 769.787 1360.35 798.072 1432.34C825.306 1501.58 848.533 1571.86 862.379 1644.25C867.293 1669.47 870.866 1694.83 872.048 1720.32C872.495 1728.99 872.351 1737.66 873.086 1746.33C874.282 1759.47 876.069 1772.47 877.553 1785.61C879.038 1798.88 879.642 1812.41 882.466 1825.55C886.631 1845.25 894.671 1864.17 906.587 1881.38C919.829 1900.56 937.105 1915.8 961.068 1924.47C975.506 1929.59 990.39 1931.83 1005.72 1931.83H1481.9C1491.73 1931.83 1501.55 1931.57 1511.37 1930.65C1539.05 1928.15 1562.27 1917.51 1580.29 1898.85C1603.8 1874.42 1616.45 1845.78 1619.74 1813.99C1622.86 1784.43 1626.44 1754.87 1628.22 1725.18C1629.87 1697.72 1633.28 1670.53 1638.5 1643.59C1649.36 1587.37 1666.03 1532.45 1685.69 1478.19C1709.51 1412.37 1737.04 1347.74 1767.85 1284.29C1785.86 1247.24 1804.46 1210.32 1823.67 1173.8C1839 1144.63 1854.92 1115.73 1871.9 1087.22C1893.34 1051.23 1912.24 1014.31 1927.27 975.819C1953.91 907.504 1967.62 837.219 1969.25 765.094C1969.69 747.884 1969.1 730.806 1968.05 713.727ZM1817.11 1045.71C1741.94 1173.14 1676.74 1304.52 1625.54 1441.01C1604.26 1498.16 1585.95 1555.97 1573.44 1615.22C1566.74 1647.14 1561.09 1679.2 1559.9 1711.65C1558.7 1745.15 1554.39 1778.38 1550.67 1811.75C1549.03 1825.94 1543.38 1838.95 1534.31 1850.77C1525.82 1861.81 1514.06 1867.45 1498.73 1867.45H1259.08C1258.63 1867.45 1258.04 1867.59 1257.59 1867.59H1250.59C1247.02 1867.59 1243.44 1867.59 1239.87 1867.72C1238.23 1867.98 1236.74 1868.11 1235.1 1868.11C1230.49 1868.11 1226.02 1867.98 1221.41 1867.59C1220.82 1867.59 1220.37 1867.59 1219.77 1867.45H1218.88C1218.88 1867.59 1214.41 1867.59 1214.41 1867.59H1207.41C1140.13 1867.59 1072.84 1867.32 1005.56 1867.59C987.408 1867.59 974.599 1860.89 965.666 1847.62C955.996 1833.3 950.925 1817.8 949.296 1801.24C947.365 1780.75 945.132 1760.25 943.043 1739.76C942.741 1736.34 942.452 1732.93 942.452 1729.51C941.256 1666.85 927.712 1605.89 910.449 1545.46C883.058 1449.69 844.512 1357.2 801.487 1266.02C763.822 1186.15 721.848 1107.85 677.497 1030.73C642.065 969.25 618.549 904.614 607.829 836.299C604.702 816.33 602.915 796.493 602.469 776.393C602.167 762.204 600.984 747.885 601.273 733.696C602.469 682.197 611.1 631.75 627.023 582.353C661.403 476.334 723.635 385.161 814.428 309.489C902.396 236.314 1005.55 188.099 1124.19 166.423C1155.75 160.642 1187.75 157.489 1220.06 155.913C1246.7 154.599 1273.34 154.993 1299.84 156.832C1368.62 161.693 1435.14 175.093 1498.11 200.054C1685.07 274.018 1807.73 398.561 1870.24 570.004C1885.27 611.255 1894.2 653.689 1897.78 697.043C1899.12 713.596 1900.6 730.28 1900.6 746.833C1900.3 852.327 1872.62 951.909 1817.25 1045.71H1817.1H1817.11Z" fill="black"/>
<path d="M1018.65 2180.12C990.403 2170.53 975.295 2152.4 975.033 2124.42C974.639 2095.78 990.009 2077.13 1018.39 2067.01C1015.36 2065.83 1013.79 2065.3 1012.34 2064.65C973.588 2049.8 962.158 2001.19 990.403 1970.85C999.6 1960.86 1011.16 1954.82 1025.09 1953.9C1027.71 1953.9 1030.34 1953.64 1032.97 1953.64H1466.77C1486.6 1953.64 1502.76 1960.99 1514.32 1977.15C1534.95 2005.79 1524.96 2051.38 1485.95 2064.65C1484.24 2065.17 1482.53 2065.83 1479.38 2066.88C1509.73 2077 1526.15 2096.31 1524.31 2127.84C1522.73 2154.9 1506.44 2171.19 1480.17 2179.86C1483.58 2181.31 1485.68 2182.23 1487.65 2183.01C1510.25 2191.29 1529.43 2214.68 1523.65 2247.78C1519.05 2274.45 1495.54 2293.5 1467.95 2293.5H1031.79C1000.52 2293.5 980.288 2271.69 975.821 2247.52C970.566 2219.54 985.28 2193 1011.82 2182.62C1013.39 2181.96 1015.1 2181.31 1018.65 2179.99V2180.12Z" fill="black"/>
<path d="M1075.53 2315.31H1424.86C1416.32 2330.15 1404.76 2341.58 1392.8 2352.36C1358.51 2383.23 1318.31 2401.49 1272.2 2406.48C1183.65 2416.07 1108.38 2367.33 1075.53 2315.31Z" fill="black"/>
<path d="M1081.52 289.454C996.762 285.067 913.628 322.075 850.621 379.998C778.168 446.604 734.789 540.708 714.57 636.729C701.879 696.977 698.556 758.447 699.081 819.746C699.147 827.287 710.563 827.011 710.498 819.444C709.617 716.079 721.362 611.505 766.056 516.876C804.627 435.227 866.636 366.124 947.733 328.289C989.746 308.688 1035.78 298.795 1081.64 301.173C1088.97 301.554 1088.83 289.822 1081.52 289.441V289.454Z" fill="black" stroke="black" stroke-width="51" stroke-miterlimit="10"/>
<path d="M1227.48 1642.53C1031.21 1642.53 906.219 1517.79 906.219 1315.58V483.941H1032.04V1322.11C1032.04 1451.75 1106.68 1534.91 1226.64 1534.91C1346.6 1534.91 1419.56 1459.89 1419.56 1329.44V1265.84H1545.38V1335.14C1545.38 1524.29 1418.72 1642.52 1227.48 1642.52V1642.53Z" fill="black"/>
<path d="M1291.3 665.933H1203.72V1418.89H1291.3V665.933Z" fill="black"/>
<path d="M1250.73 483.941H1087.63C1087.57 509.966 1087.46 536.004 1087.33 562.029C1087.25 577.006 1087.16 591.996 1087.07 606.973H1256.8C1377.47 606.973 1454.86 679.977 1454.86 797.268C1454.86 822.755 1451.18 846.415 1444.1 867.79H1549.51C1553.14 845.719 1555.04 822.452 1555.04 798.096C1555.04 606.158 1438.93 483.941 1250.73 483.941Z" fill="black"/>
</svg>
